<svg width="16" height="16" viewBox="0 0 16 16" fill="none" xmlns="http://www.w3.org/2000/svg">
<g id="icon/info">
<path id="Vector" d="M8 3C5.24 3 3 5.24 3 8C3 10.76 5.24 13 8 13C10.76 13 13 10.76 13 8C13 5.24 10.76 3 8 3ZM8.5 10.5C8.5 10.7761 8.27614 11 8 11C7.72386 11 7.5 10.7761 7.5 10.5C7.5 10.2239 7.72386 10 8 10C8.27614 10 8.5 10.2239 8.5 10.5ZM8.5 8.5C8.5 8.77614 8.27614 9 8 9C7.72386 9 7.5 8.77614 7.5 8.5V5.5C7.5 5.22386 7.72386 5 8 5C8.27614 5 8.5 5.22386 8.5 5.5V8.5Z" fill="#555555"/>
</g>
</svg>
