<svg width="14" height="14" viewBox="0 0 14 14" fill="none" xmlns="http://www.w3.org/2000/svg">
<g id="reset" clip-path="url(#clip0_1134_15369)">
<path id="Vector" d="M2.14603 3.59194L2.14624 3.76858C3.19204 2.20067 4.97712 1.16663 7.00184 1.16663C10.2207 1.16663 12.8334 3.77996 12.8334 6.99821C12.8334 10.2176 10.2207 12.831 7.00184 12.831C3.94226 12.831 1.42926 10.4696 1.18834 7.47129C1.17434 7.29513 1.29859 6.99821 1.62526 6.99821C1.85334 6.99821 2.04234 7.17321 2.06101 7.40071C2.26576 9.94929 4.40134 11.956 7.00184 11.956C9.73768 11.956 11.9584 9.73463 11.9584 6.99821C11.9584 4.26296 9.73768 2.04163 7.00184 2.04163C5.27275 2.04163 3.74926 2.92906 2.86255 4.2722L2.98272 4.27251M2.14603 3.59194C3.21954 2.06551 4.99487 1.06663 7.00184 1.06663C10.2759 1.06663 12.9334 3.72474 12.9334 6.99821C12.9334 10.2728 10.2759 12.931 7.00184 12.931C3.88971 12.931 1.33372 10.5292 1.08867 7.4793L1.08866 7.47921C1.07978 7.3675 1.11391 7.22549 1.19824 7.10979C1.28547 6.9901 1.42713 6.89821 1.62526 6.89821C1.9057 6.89821 2.13778 7.11345 2.16068 7.39253L2.16069 7.3927C2.3613 9.88976 4.4539 11.856 7.00184 11.856C9.68243 11.856 11.8584 9.67942 11.8584 6.99821C11.8584 4.31818 9.68244 2.14163 7.00184 2.14163C5.33141 2.14163 3.85666 2.9869 2.98272 4.27251M2.14603 3.59194L2.14468 2.45054M2.14603 3.59194C2.11205 3.64027 2.07877 3.68912 2.04621 3.73848L3.95993 4.27496C4.25658 4.27505 4.49726 4.51579 4.49726 4.81246C4.49726 5.10919 4.25649 5.34996 3.95976 5.34996H1.60718C1.31045 5.34996 1.06968 5.10919 1.06968 4.81246V2.45054C1.06968 2.15381 1.31045 1.91304 1.60718 1.91304C1.90382 1.91304 2.14468 2.15314 2.14468 2.45054M2.98272 4.27251C2.96029 4.3055 2.93826 4.33878 2.91663 4.37234L3.95976 4.37496V4.27496L2.98272 4.27251ZM2.14468 2.45054H2.04468L2.14468 2.45042L2.14468 2.45054Z" fill="#191919" stroke="#191919" stroke-width="0.2"/>
</g>
<defs>
<clipPath id="clip0_1134_15369">
<rect width="14" height="14" fill="white"/>
</clipPath>
</defs>
</svg>
