<svg width="24" height="24" viewBox="0 0 24 24" fill="none" xmlns="http://www.w3.org/2000/svg">
<g id="phone">
<g id="Group 382">
<path id="Subtract" fill-rule="evenodd" clip-rule="evenodd" d="M5 4C5 2.89543 5.89543 2 7 2H17C18.1046 2 19 2.89543 19 4V20C19 21.1046 18.1046 22 17 22H7C5.89543 22 5 21.1046 5 20V4ZM9 3V4C9 4.55228 9.44772 5 10 5H14C14.5523 5 15 4.55228 15 4V3H16V4C16 5.10457 15.1046 6 14 6H10C8.89543 6 8 5.10457 8 4V3H9ZM9 20.5C9 20.2239 9.26863 20 9.6 20H14.4C14.7314 20 15 20.2239 15 20.5C15 20.7761 14.7314 21 14.4 21H9.6C9.26863 21 9 20.7761 9 20.5Z" fill="white"/>
</g>
</g>
</svg>
