<svg width="85" height="25" viewBox="0 0 85 25" fill="none" xmlns="http://www.w3.org/2000/svg">
<path fill-rule="evenodd" clip-rule="evenodd" d="M79.4265 19.952C79.4265 21.3644 78.2413 22.4682 76.778 22.4682C75.3147 22.4682 74.1851 21.3644 74.1851 19.952C74.1851 18.5408 75.3147 17.4641 76.778 17.4641C78.2413 17.4641 79.4265 18.5408 79.4265 19.952ZM76.8072 14.9363C73.5676 14.9363 71.1709 17.1982 71.1709 19.9549C71.1709 22.7122 73.5676 25 76.8072 25C80.0428 25 82.4401 22.7122 82.4401 19.9549C82.4401 17.1982 80.0428 14.9363 76.8072 14.9363ZM8.33996 17.9637H5.22852V24.4639H17.5982V21.8998H8.33996V17.9637ZM82.5549 4.94658V8.26211H85.0002V10.8741H82.5549V14.7444H79.5293V4.94658H82.5549ZM65.4307 11.8556C69.4331 9.97262 69.5722 7.70671 69.5865 4.9529H73.0173C73.0304 7.70671 73.1706 9.97262 77.1731 11.8556L75.7144 14.1013C73.9867 13.5978 72.0461 12.0828 71.3016 10.7345C70.5588 12.0828 68.6159 13.5978 66.8877 14.1013L65.4307 11.8556ZM36.4758 9.57718H34.8797V4.98422H32.0264V24.7869H34.8797V12.4613H36.4758V24.7869H39.4133V4.98422H36.4758V9.57718ZM57.9627 9.57718H59.3459V4.98422H62.3148V24.7869H59.3459V12.4613H57.9627V24.7869H55.0762V4.98422H57.9627V9.57718ZM14.5841 15.4441H12.2876V12.8962H14.5841V11.1891H12.2842V8.64115H14.5841V4.97498H17.6103V19.5376H14.5841V15.4441ZM49.1631 13.5225C50.3277 13.5225 51.2216 12.5034 51.2216 11.448C51.2216 10.3961 50.3277 9.3736 49.1631 9.3736C48.002 9.3736 47.1058 10.3961 47.1058 11.448C47.1058 12.5034 48.002 13.5225 49.1631 13.5225ZM47.6357 5.6832V4.10877H50.6985V5.6832H54.1533V8.10252H52.4491C53.4689 8.79227 54.0595 10.1054 54.0595 11.5005C54.0595 13.9071 52.0061 15.9631 49.1683 15.9631C46.3298 15.9631 44.2759 13.9071 44.2759 11.5005C44.2759 10.1054 44.8676 8.79227 45.8857 8.10252H44.1826V5.6832H47.6357ZM8.16358 11.2524C8.16358 12.3078 7.26626 13.2219 6.10512 13.2219C4.94284 13.2219 4.04609 12.3078 4.04609 11.2524C4.04609 10.1994 4.94284 9.28354 6.10512 9.28354C7.26626 9.28354 8.16358 10.1994 8.16358 11.2524ZM4.49303 4.12252V5.6981H0.651367V8.11742H2.78651C1.79133 8.78468 1.21792 10.0806 1.21792 11.3055C1.21792 13.7121 3.27123 15.6643 6.10913 15.6643C8.94703 15.6643 11.0003 13.7121 11.0003 11.3055C11.0003 10.0806 10.4269 8.78468 9.43002 8.11742H11.5663V5.6981H7.72408V4.12252H4.49303ZM26.0494 15.6542H30.9892V18.2627H22.9648V5.54268H30.1079V8.1402H26.0494V15.6542Z" fill="#003070"/>
</svg>
