<svg width="14" height="14" viewBox="0 0 14 14" fill="none" xmlns="http://www.w3.org/2000/svg">
<g id="reset" clip-path="url(#clip0_1535_2164)">
<path id="Vector" d="M2.29578 3.14703L2.29607 3.55435C3.35771 2.10718 5.07075 1.16664 7.00175 1.16664C10.2206 1.16664 12.8333 3.77998 12.8333 6.99823C12.8333 10.2176 10.2206 12.831 7.00175 12.831C3.94217 12.831 1.42917 10.4696 1.18825 7.47131C1.17425 7.29514 1.2985 6.99823 1.62517 6.99823C1.85325 6.99823 2.04225 7.17323 2.06092 7.40073C2.26567 9.94931 4.40125 11.956 7.00175 11.956C9.73758 11.956 11.9583 9.73464 11.9583 6.99823C11.9583 4.26298 9.73758 2.04164 7.00175 2.04164C5.33784 2.04164 3.86433 2.86343 2.96543 4.12229L3.27655 4.12271M2.29578 3.14703C3.4112 1.78635 5.10553 0.916645 7.00175 0.916645C10.3587 0.916645 13.0833 3.64192 13.0833 6.99823C13.0833 10.3557 10.3587 13.081 7.00175 13.081C3.81078 13.081 1.19032 10.6185 0.939052 7.49133L0.939035 7.49112C0.92734 7.34396 0.971331 7.16635 1.07692 7.02146C1.18978 6.86661 1.37484 6.74823 1.62517 6.74823C1.98414 6.74823 2.28083 7.02382 2.31008 7.38028L2.31011 7.38071C2.50451 9.80048 4.53263 11.706 7.00175 11.706C9.59945 11.706 11.7083 9.59663 11.7083 6.99823C11.7083 4.40103 9.59949 2.29164 7.00175 2.29164C5.48683 2.29164 4.13777 3.00899 3.27655 4.12271M2.29578 3.14703L2.29458 1.45056C2.29458 1.4505 2.29458 1.45044 2.29458 1.45038C2.29449 1.07009 1.98638 0.763062 1.60708 0.763062C1.22751 0.763062 0.919582 1.07099 0.919582 1.45056V4.81248C0.919582 5.19205 1.22751 5.49998 1.60708 5.49998H4.95967C5.33924 5.49998 5.64717 5.19205 5.64717 4.81248C5.64717 4.43297 5.33933 4.12507 4.95984 4.12498L4.95967 4.37498M2.29578 3.14703C2.20896 3.25295 2.12564 3.36184 2.04601 3.47352L2.04458 1.45056C2.04458 1.20848 1.84858 1.01306 1.60708 1.01306C1.36558 1.01306 1.16958 1.20906 1.16958 1.45056V4.81248C1.16958 5.05398 1.36558 5.24998 1.60708 5.24998H4.95967C5.20117 5.24998 5.39717 5.05398 5.39717 4.81248C5.39717 4.57098 5.20117 4.37498 4.95967 4.37498M3.27655 4.12271C3.21377 4.20389 3.15358 4.28719 3.0961 4.37246L4.95967 4.37498M3.27655 4.12271L4.95967 4.12498V4.37498" fill="#C7C7CD" stroke="#C7C7CD" stroke-width="0.5"/>
</g>
<defs>
<clipPath id="clip0_1535_2164">
<rect width="14" height="14" fill="white"/>
</clipPath>
</defs>
</svg>
