<svg width="242" height="78" viewBox="0 0 242 78" fill="none" xmlns="http://www.w3.org/2000/svg">
<path d="M2 13.4893C9.02123 12.4862 16.3851 13.413 23.324 14.6007C25.5687 14.985 27.807 15.1964 30.0546 15.527C30.5307 15.597 31.6499 15.5579 31.9277 16.0827C32.8393 17.8047 31.3804 18.9608 30.528 20.4463C28.8217 23.4201 27.0502 26.361 24.95 29.0912C23.0563 31.5531 21.3977 34.3641 19.7837 37.0156C18.8153 38.6066 18.5936 40.3638 17.3755 41.8526C16.2758 43.1967 15.2907 44.4731 14.391 45.8869C13.512 47.2682 12.7367 48.4761 14.2263 46.0927" stroke="#020202" stroke-width="3" stroke-linecap="round"/>
<path d="M53.4987 11.6367C52.253 14.3616 52.9795 18.2309 52.7783 21.249C52.6509 23.1595 52.7577 25.1191 52.7577 27.0328C52.7577 28.1367 53.8522 33.1423 53.4987 33.4959" stroke="#020202" stroke-width="3" stroke-linecap="round"/>
<path d="M34.2329 53.5026C35.9724 56.3292 36.5622 60.8297 37.1145 64.0822C37.3795 65.6424 36.8114 70.3542 37.1969 65.7289" stroke="#020202" stroke-width="3" stroke-linecap="round"/>
<path d="M37.5674 54.614C39.9425 53.9103 42.6051 54.1752 45.0596 53.8731C47.2987 53.5975 49.4767 53.5026 51.7285 53.5026C53.9859 53.5026 53.9672 54.9683 54.3219 56.9193C54.9297 60.262 56.9519 63.1107 57.4917 66.4699C57.7704 68.2036 57.3123 70.0186 57.6564 71.7391C57.7665 72.2895 58.315 72.8 58.315 73.1387" stroke="#020202" stroke-width="3" stroke-linecap="round"/>
<path d="M37.5674 71.6567C37.7275 74.2184 47.0584 75.0189 49.0527 74.9912C51.7792 74.9533 54.245 74.0519 56.8331 73.324C57.2978 73.1933 59.7103 72.0272 59.4265 72.0272" stroke="#020202" stroke-width="3" stroke-linecap="round"/>
<path d="M91.6597 14.6007C94.0569 15.8678 96.7702 17.3448 98.6167 19.3965C99.1996 20.0442 99.0888 20.7884 99.8105 21.2696" stroke="#020202" stroke-width="3" stroke-linecap="round"/>
<path d="M84.9907 29.4205C91.0684 26.7015 104.311 23.7213 107.22 22.7516" stroke="#020202" stroke-width="3" stroke-linecap="round"/>
<path d="M97.217 34.9778C93.6296 36.1107 93.1918 38.282 93.1416 41.8526C93.1082 44.2174 93.5632 46.624 95.6527 48.151C99.1586 50.713 105.818 48.7291 108.126 45.3723C110.408 42.0536 108.525 39.2035 107.035 35.9247C106.059 33.7766 101.786 34.6073 99.8104 34.6073" stroke="#020202" stroke-width="3" stroke-linecap="round"/>
<path d="M114.26 32.3844C115.606 31.0922 117.619 30.2952 119.344 29.5851C121.913 28.5272 125.022 26.6048 127.762 26.1066C129.708 25.7527 128.049 28.2354 127.556 28.8853C125.756 31.2589 122.577 33.5607 122.04 36.6451C121.851 37.7334 121.155 39.7851 121.834 40.8234C123.033 42.6567 127.186 40.1646 128.339 39.5885C131.362 38.0767 135.026 36.7135 137.724 34.6897C137.896 34.5608 137.363 34.9693 137.148 34.9779C135.887 35.0283 136.89 34.9779 137.601 34.9779" stroke="#020202" stroke-width="3" stroke-linecap="round"/>
<path d="M146.493 3.48584C144.684 8.79481 146.183 14.0875 145.011 19.5817C144.015 24.2491 144.772 29.3283 144.64 34.0722C144.582 36.171 143.899 38.134 143.899 40.2882C143.899 41.4954 143.994 42.7538 143.817 43.952C143.613 45.3326 143.158 46.6207 143.158 48.0275C143.158 49.0188 143.575 50.0869 142.417 49.7976" stroke="#020202" stroke-width="3" stroke-linecap="round"/>
<path d="M125.004 54.2435C123.947 60.7235 124.341 67.375 130.726 70.6276C134.277 72.4367 138.49 72.2383 142.335 71.6567C143.064 71.5465 148.715 70.3547 148.715 70.5453" stroke="#020202" stroke-width="3" stroke-linecap="round"/>
<path d="M166.499 31.2729C172.157 31.2729 177.16 29.6428 182.636 28.4736C184.985 27.9723 185.266 28.3128 185.765 27.9385" stroke="#020202" stroke-width="3" stroke-linecap="round"/>
<path d="M180.208 33.4958C177.384 36.4854 175.207 39.9156 174.095 43.8697C173.693 45.2987 172.468 46.983 174.136 47.7805C176.181 48.7586 177.604 48.976 179.837 49.2418C182.705 49.5832 185.33 49.1793 188.153 48.6861C189.549 48.442 191.836 48.3657 193.093 47.5746C194.807 46.4952 196.805 46.2068 198.732 45.6398C200.452 45.1342 200.748 44.4038 201.326 44.9812" stroke="#020202" stroke-width="3" stroke-linecap="round"/>
<path d="M208.365 18.6761C212.097 19.2552 216.887 21.7293 216.887 25.9214C216.887 30.643 217.428 35.3049 217.977 39.9796C218.376 43.3656 216.636 46.1131 216.516 49.3448C216.466 50.6984 215.625 52.0149 215.384 53.3379C215.005 55.4233 213.532 53.4123 215.034 54.6141" stroke="#020202" stroke-width="3" stroke-linecap="round"/>
<path d="M221.333 36.0893C223.948 34.8584 227.239 33.9599 229.463 32.0139C231.468 30.2595 234.332 28.2788 235.226 25.6949C235.914 23.7074 237.223 21.9528 237.264 19.7876C237.311 17.3001 237.634 14.8631 237.634 12.3777C237.634 10.1524 239.221 3.3096 235.411 2.76542C234.752 2.6713 233.637 1.84916 233.024 2.02443C232.728 2.10893 232.088 7.11786 232.077 7.64359C232.008 10.8889 233.376 13.9497 233.538 17.1941C233.749 21.41 232.971 24.7008 234.3 28.8441C235.821 33.5872 235.541 38.4955 236.708 43.2933C237.699 47.3666 238.206 51.5465 239.116 55.6431C239.92 59.2599 239.857 62.7389 239.857 66.4286C239.857 67.767 239.884 69.0524 240.022 70.3806C240.287 72.9477 237.794 74.5637 236.152 76.1026" stroke="#020202" stroke-width="3" stroke-linecap="round"/>
</svg>
